<svg xmlns="http://www.w3.org/2000/svg" viewBox="0 0 500 500"><g id="freepik--background-complete--inject-11"><path d="M87.59,325.06l-13.12.27-6.66.12c-2.23,0-4.47,0-6.7.05h-.44v-.44l-.06-11.19v-.51h.5l13.24.06c4.42,0,8.83.11,13.24.16h.28v.27c0,1.89-.09,3.78-.13,5.65Zm0,0-.14-5.66c0-1.86-.11-3.7-.13-5.53l.27.27c-4.41.05-8.82.16-13.24.16l-13.24.07.5-.5,0,11.19-.45-.45c2.18,0,4.36,0,6.55.05l6.58.12Z" style="fill:#ebebeb"></path><path d="M72.82,339.17l-13.12.27-6.66.12c-2.23,0-4.47,0-6.7.05H45.9v-.44L45.84,328v-.51h.5l13.24.06c4.41,0,8.83.11,13.24.16h.28V328c0,1.89-.08,3.78-.13,5.65Zm0,0-.14-5.66c-.05-1.86-.11-3.7-.13-5.53l.27.27c-4.41.05-8.83.16-13.24.16l-13.24.06.5-.49-.05,11.19-.45-.45c2.18,0,4.36,0,6.55,0l6.58.12Z" style="fill:#ebebeb"></path><path d="M198.69,129.27l-13.12.28-6.66.11c-2.23.05-4.47,0-6.7.05h-.44v-.45l-.06-11.19v-.5h.5l13.24.06c4.41,0,8.83.11,13.24.16H199v.27c0,1.9-.08,3.78-.13,5.65Zm0,0-.14-5.66c-.05-1.86-.11-3.7-.13-5.53l.27.27c-4.41.05-8.83.16-13.24.16l-13.24.07.5-.5-.05,11.19-.45-.45c2.18,0,4.36,0,6.55.06l6.58.11Z" style="fill:#ebebeb"></path><path d="M183.92,143.38l-13.13.28-6.66.11c-2.22,0-4.46,0-6.69,0H157v-.45l-.05-11.19v-.5h.5l13.24.06c4.41,0,8.83.11,13.24.16h.28v.27c0,1.9-.08,3.78-.13,5.65Zm0,0-.14-5.66c-.05-1.86-.11-3.7-.13-5.53l.27.27c-4.41,0-8.83.16-13.24.16l-13.24.07.5-.5-.06,11.19-.44-.45c2.18,0,4.36,0,6.54.06l6.58.11Z" style="fill:#ebebeb"></path><path d="M401.92,241.37l-13.13.27-6.66.12c-2.22,0-4.46,0-6.69.05H375v-.45l-.05-11.19v-.51h.51l13.24.06c4.41,0,8.82.11,13.24.16h.27v.27c0,1.9-.09,3.78-.13,5.65Zm0,0-.15-5.66c0-1.86-.11-3.7-.13-5.53l.28.27c-4.42.05-8.83.16-13.24.16l-13.24.07.5-.5-.06,11.19-.44-.45c2.18,0,4.35,0,6.54.06l6.58.11Z" style="fill:#ebebeb"></path><path d="M169.21,129.27l-13.13.28-6.66.11c-2.23.05-4.46,0-6.69.05h-.45v-.45l-.05-11.19v-.5h.51l13.24.06c4.41,0,8.82.11,13.24.16h.27v.27c0,1.9-.09,3.78-.13,5.65Zm0,0-.15-5.66c0-1.86-.11-3.7-.13-5.53l.28.27c-4.42.05-8.83.16-13.24.16l-13.24.07.5-.5-.06,11.19-.44-.45c2.18,0,4.35,0,6.54.06l6.58.11Z" style="fill:#ebebeb"></path><path d="M453.66,339.17l-13.13.27-6.66.12c-2.22,0-4.46,0-6.69.05h-.45v-.44L426.68,328v-.51h.5l13.24.06c4.41,0,8.83.11,13.24.16h.27V328c0,1.89-.08,3.78-.13,5.65Zm0,0-.14-5.66c0-1.86-.12-3.7-.13-5.53l.27.27c-4.41.05-8.83.16-13.24.16l-13.24.06.5-.49-.06,11.19-.44-.45c2.18,0,4.36,0,6.54,0l6.58.12Z" style="fill:#ebebeb"></path><path d="M438.89,65.49l-13.13.27-6.66.12c-2.22,0-4.46,0-6.69.05H412v-.45l0-11.19v-.51h.51l13.24.06c4.41,0,8.82.11,13.24.16h.27v.27c0,1.9-.09,3.78-.13,5.65Zm0,0-.14-5.66c-.05-1.86-.12-3.7-.14-5.53l.28.27c-4.42,0-8.83.16-13.24.16l-13.24.07.5-.5-.06,11.19-.44-.45c2.18,0,4.35,0,6.54.06l6.58.11Z" style="fill:#ebebeb"></path><path d="M453.66,79.6l-13.13.27-6.66.12c-2.22,0-4.46,0-6.69.05h-.45V79.6l-.05-11.19V67.9h.5l13.24.06c4.41,0,8.83.11,13.24.16h.27v.27c0,1.89-.08,3.78-.13,5.65Zm0,0-.14-5.66c0-1.86-.12-3.7-.13-5.53l.27.27c-4.41,0-8.83.16-13.24.16l-13.24.07.5-.5-.06,11.19-.44-.45c2.18,0,4.36,0,6.54.06l6.58.11Z" style="fill:#ebebeb"></path><path d="M87.59,65.49l-13.12.27-6.66.12c-2.23,0-4.47,0-6.7.05h-.44v-.45L60.61,54.3v-.51h.5l13.24.06c4.42,0,8.83.11,13.24.16h.28v.27c0,1.9-.09,3.78-.13,5.65Zm0,0-.14-5.66c0-1.86-.11-3.7-.13-5.53l.27.27c-4.41,0-8.82.16-13.24.16l-13.24.07.5-.5,0,11.19L61.11,65c2.18,0,4.36,0,6.55.06l6.58.11Z" style="fill:#ebebeb"></path><path d="M382.54,296.05a7.93,7.93,0,0,1-1.29,4c0-.26-.09-.54-.16-.82s-.15-.57-.24-.86a16.4,16.4,0,0,0-3.11-5.37l-.46-.53a.8.8,0,0,0-.13-.13h0l-.22-.24c-12.58-15.94-24.55,9.88-24.81,10.48h0s-.69-25.76,13-26.47C375.92,275.53,383.17,288.09,382.54,296.05Z" style="fill:#ebebeb"></path><path d="M381.25,300a4.88,4.88,0,0,1-1.12,1.19c-6.56,5-26.7,1.57-27.95,1.35h-.06c18.93,1.82,24.13-5.07,25-10.24a.8.8,0,0,1,.13.13l.46.53a16.77,16.77,0,0,1,3.11,5.37c.09.29.17.58.24.86S381.21,299.77,381.25,300Z" style="fill:#ebebeb"></path><path d="M381.25,300a4.88,4.88,0,0,1-1.12,1.19c-6.56,5-26.7,1.57-27.95,1.35h-.06c18.93,1.82,24.13-5.07,25-10.24a.8.8,0,0,1,.13.13l.46.53a16.77,16.77,0,0,1,3.11,5.37c.09.29.17.58.24.86S381.21,299.77,381.25,300Z" style="opacity:0.2"></path><path d="M321.22,299a8,8,0,0,0,1.66,3.85c0-.27,0-.55.08-.84a7.46,7.46,0,0,1,.16-.88,16.36,16.36,0,0,1,2.58-5.63l.41-.58a1.34,1.34,0,0,1,.11-.14h0c.07-.09.14-.17.2-.26,11-17.07,25.38,7.5,25.69,8.07h0s-1.77-25.71-15.51-25.11C325.85,277.91,319.83,291.11,321.22,299Z" style="fill:#ebebeb"></path><path d="M322.88,302.82a5.31,5.31,0,0,0,1.23,1.08c7,4.37,26.72-1,27.95-1.32l.06,0c-18.68,3.62-24.5-2.75-25.9-7.81a1.34,1.34,0,0,0-.11.14l-.41.58a16.75,16.75,0,0,0-2.58,5.63c-.07.3-.12.6-.16.88S322.89,302.55,322.88,302.82Z" style="fill:#ebebeb"></path><path d="M322.88,302.82a5.31,5.31,0,0,0,1.23,1.08c7,4.37,26.72-1,27.95-1.32l.06,0c-18.68,3.62-24.5-2.75-25.9-7.81a1.34,1.34,0,0,0-.11.14l-.41.58a16.75,16.75,0,0,0-2.58,5.63c-.07.3-.12.6-.16.88S322.89,302.55,322.88,302.82Z" style="opacity:0.2"></path><polygon points="388.95 418.19 315.73 418.19 321.78 305.61 381.64 308.17 388.95 418.19" style="fill:#dbdbdb"></polygon><polygon points="405.85 418.19 383.12 418.19 379.94 308.17 401.79 310.07 405.85 418.19" style="fill:#a6a6a6"></polygon><polygon points="314.74 305.61 314.74 321.73 379.94 319.74 379.94 301.28 314.74 305.61" style="fill:#c7c7c7"></polygon><polygon points="404.45 321.73 379.94 319.74 379.94 301.28 405.85 305.61 404.45 321.73" style="fill:#dbdbdb"></polygon><polygon points="357.72 418.19 342.4 418.19 340.86 303.87 358.95 302.67 357.72 418.19" style="fill:#ebebeb"></polygon><polygon points="392.5 418.19 397.72 418.19 397.25 304.17 389.97 302.96 392.5 418.19" style="fill:#ebebeb"></polygon><path d="M277.73,363.2a7.53,7.53,0,0,0,1.65,3.57,7.18,7.18,0,0,1,.06-.79,8.3,8.3,0,0,1,.12-.83,15.27,15.27,0,0,1,2.3-5.35c.11-.18.23-.36.36-.55l.1-.14h0c.06-.09.13-.17.18-.26,9.92-16.27,24,6.44,24.3,7h0s-2.27-24.07-15.15-23.19C281.57,343.33,276.24,355.85,277.73,363.2Z" style="fill:#dbdbdb"></path><path d="M279.38,366.77a5.31,5.31,0,0,0,1.18,1c6.68,3.93,25.05-1.57,26.2-1.91l.05,0c-17.44,3.84-23.05-2-24.49-6.71l-.1.14c-.13.19-.25.37-.36.55a15.73,15.73,0,0,0-2.3,5.35c-.05.28-.09.56-.12.83A7.18,7.18,0,0,0,279.38,366.77Z" style="fill:#a6a6a6"></path><path d="M335.2,359a7.6,7.6,0,0,1-1.11,3.77c0-.25-.11-.51-.18-.77s-.15-.53-.24-.81a15.35,15.35,0,0,0-3.05-4.95l-.44-.49-.12-.13h0l-.22-.23c-12.18-14.65-22.8,9.87-23,10.43h0s-1.26-24.15,11.61-25.15C328.5,339.89,335.6,351.5,335.2,359Z" style="fill:#dbdbdb"></path><path d="M334.09,362.76a5.32,5.32,0,0,1-1,1.14c-6,4.87-25,2.11-26.19,1.93h-.06c17.81,1.26,22.52-5.33,23.25-10.21l.12.13.44.49a15.63,15.63,0,0,1,3.05,4.95c.09.28.17.54.24.81S334,362.51,334.09,362.76Z" style="fill:#a6a6a6"></path><polygon points="340.11 418.01 272.27 418.01 274.76 369.98 333.34 367.88 340.11 418.01" style="fill:#ebebeb"></polygon><polygon points="340.11 418.01 272.27 418.01 274.76 369.98 333.34 367.88 340.11 418.01" style="fill:#fff;opacity:0.6000000000000001"></polygon><polygon points="353.98 418.01 334.71 418.01 331.76 367.88 351.64 371.59 353.98 418.01" style="fill:#ebebeb"></polygon><polygon points="271.35 368.06 271.35 384.83 331.76 382.75 331.76 363.57 271.35 368.06" style="fill:#ebebeb"></polygon><polygon points="271.35 368.06 271.35 384.83 331.76 382.75 331.76 363.57 271.35 368.06" style="fill:#fff;opacity:0.4"></polygon><polygon points="354.47 384.83 331.76 382.75 331.76 363.57 355.77 368.06 354.47 384.83" style="fill:#ebebeb"></polygon><polygon points="354.47 384.83 331.76 382.75 331.76 363.57 355.77 368.06 354.47 384.83" style="opacity:0.1"></polygon><polygon points="290.81 366.62 291.4 418.01 307.42 418.01 307.68 365.36 290.81 366.62" style="fill:#dbdbdb"></polygon><polygon points="341.33 365.36 347.35 366.49 347.35 418.01 342.31 418.01 341.33 365.36" style="fill:#dbdbdb"></polygon><rect x="303.93" y="44.43" width="125.78" height="193.33" style="fill:#dbdbdb"></rect><rect x="311.87" y="52.57" width="51.56" height="70.44" style="fill:#fff"></rect><rect x="370.21" y="52.57" width="51.56" height="70.44" style="fill:#fff"></rect><rect x="311.87" y="129.17" width="51.56" height="100.44" style="fill:#fff"></rect><rect x="370.21" y="129.17" width="51.56" height="100.44" style="fill:#fff"></rect><rect x="273.93" y="44.43" width="34.53" height="250.9" style="fill:#ebebeb"></rect><polygon points="301.91 58.26 302.18 89.71 302.27 101.16 302.46 164.07 302.28 236.97 302.18 238.43 301.91 269.88 301.64 238.43 301.55 236.97 301.37 164.07 301.55 101.16 301.65 89.71 301.91 58.26" style="fill:#fff"></polygon><polygon points="286.06 65.55 286.32 73.64 286.48 101.72 286.6 157.89 286.48 224.06 286.32 242.14 286.06 250.23 285.79 242.14 285.63 224.06 285.51 157.89 285.64 101.72 285.79 73.64 286.06 65.55" style="fill:#fff"></polygon><polygon points="293.98 72.18 294.25 85.07 294.35 117.95 294.53 163.72 294.35 239.49 294.25 262.38 293.98 295.26 293.72 262.38 293.62 239.49 293.44 163.72 293.62 117.95 293.72 85.07 293.98 72.18" style="fill:#fff"></polygon><polygon points="280.16 59.91 280.43 74.33 280.52 108.75 280.71 207.59 280.52 236.43 280.43 260.84 280.16 295.26 279.89 260.84 279.8 236.43 279.61 207.59 279.8 108.75 279.89 74.33 280.16 59.91" style="fill:#fff"></polygon><rect x="425.18" y="44.43" width="34.53" height="250.9" transform="translate(884.89 339.75) rotate(180)" style="fill:#ebebeb"></rect><polygon points="431.73 58.26 432 89.71 432.09 101.16 432.28 164.07 432.09 236.97 432 238.43 431.73 269.88 431.46 238.43 431.37 236.97 431.18 164.07 431.37 101.16 431.46 89.71 431.73 58.26" style="fill:#fff"></polygon><polygon points="447.58 65.55 447.85 73.64 448 101.72 448.13 157.89 448.01 224.06 447.85 242.14 447.58 250.23 447.32 242.14 447.16 224.06 447.04 157.89 447.17 101.72 447.32 73.64 447.58 65.55" style="fill:#fff"></polygon><polygon points="439.66 72.18 439.92 85.07 440.02 117.95 440.2 163.72 440.02 239.49 439.93 262.38 439.66 295.26 439.39 262.38 439.29 239.49 439.11 163.72 439.29 117.95 439.39 85.07 439.66 72.18" style="fill:#fff"></polygon><polygon points="453.48 59.91 453.75 74.33 453.84 108.75 454.03 207.59 453.85 236.43 453.75 260.84 453.48 295.26 453.21 260.84 453.12 236.43 452.93 207.59 453.12 108.75 453.21 74.33 453.48 59.91" style="fill:#fff"></polygon><polygon points="111.65 332.87 76.77 332.87 56.81 233.35 88.74 218.68 111.65 332.87" style="fill:#dbdbdb"></polygon><polygon points="211.47 332.87 111.65 332.87 88.74 218.68 188.57 218.68 211.47 332.87" style="fill:#ebebeb"></polygon><rect x="40.29" y="279.47" width="53.45" height="109.67" style="fill:#dbdbdb"></rect><polygon points="237.13 389.15 222.52 389.15 200.76 279.47 237.13 279.47 237.13 389.15" style="fill:#dbdbdb"></polygon><rect x="93.74" y="279.47" width="29.37" height="109.67" style="fill:#ebebeb"></rect><rect x="237.13" y="279.47" width="29.37" height="109.67" style="fill:#ebebeb"></rect><rect x="123.11" y="332.87" width="114.02" height="56.28" style="fill:#ebebeb"></rect><rect x="123.11" y="308.53" width="114.02" height="24.56" style="fill:#ebebeb"></rect><path d="M100.94,279.47l11.08-.2,11.09-.13h.33v.34l.12,12.84.05,12.83c0,8.56.06,17.11,0,25.67s0,17.11-.15,25.67-.19,17.11-.37,25.67q-.27-12.84-.37-25.67c-.11-8.56-.12-17.11-.15-25.67s0-17.11,0-25.67l.05-12.83.12-12.84.34.34L112,279.67Z" style="fill:#dbdbdb"></path><path d="M237.12,279.47c.23,8.59.34,17.18.43,25.77l.13,25.76-.13,25.77-.15,12.88-.28,12.88-.27-12.88-.15-12.88L236.57,331l.13-25.76C236.79,296.65,236.9,288.06,237.12,279.47Z" style="fill:#dbdbdb"></path><path d="M237.12,332.87c-9.5.22-19,.33-28.5.42l-28.5.13-28.51-.13-14.25-.15-14.25-.27,14.25-.28,14.25-.15,28.51-.13,28.5.13C218.12,332.53,227.62,332.64,237.12,332.87Z" style="fill:#dbdbdb"></path><path d="M237.12,308.53c-9.5.23-19,.34-28.5.43l-28.5.13L151.61,309l-14.25-.15-14.25-.28,14.25-.27,14.25-.15,28.51-.13,28.5.13C218.12,308.2,227.62,308.31,237.12,308.53Z" style="fill:#dbdbdb"></path><polygon points="60.6 389.14 59.88 398.03 58.19 418.56 50.45 418.56 48.76 398.03 48.04 389.14 60.6 389.14" style="fill:#c7c7c7"></polygon><polygon points="48.04 389.14 60.6 389.14 59.88 398.03 48.76 398.03 48.04 389.14" style="fill:#a6a6a6"></polygon><polygon points="114.71 389.14 113.98 398.03 112.3 418.56 104.56 418.56 102.87 398.03 102.14 389.14 114.71 389.14" style="fill:#c7c7c7"></polygon><polygon points="102.14 389.14 114.71 389.14 113.98 398.03 102.87 398.03 102.14 389.14" style="fill:#a6a6a6"></polygon><polygon points="204.45 389.14 203.72 398.03 202.03 418.56 194.29 418.56 192.61 398.03 191.88 389.14 204.45 389.14" style="fill:#c7c7c7"></polygon><polygon points="191.88 389.14 204.45 389.14 203.72 398.03 192.61 398.03 191.88 389.14" style="fill:#a6a6a6"></polygon><polygon points="258.56 389.14 257.84 398.03 256.15 418.56 248.41 418.56 246.72 398.03 246 389.14 258.56 389.14" style="fill:#c7c7c7"></polygon><polygon points="258.56 389.14 257.84 398.03 246.72 398.03 246 389.14 258.56 389.14" style="fill:#a6a6a6"></polygon></g><g id="freepik--Shadow--inject-11"><ellipse cx="220.32" cy="454.94" rx="88.07" ry="9.92" style="fill:#ebebeb"></ellipse></g><g id="freepik--Floor--inject-11"><polygon points="40.29 418.56 92.72 418.32 145.14 418.23 250 418.06 354.86 418.23 407.28 418.32 459.71 418.56 407.28 418.81 354.86 418.9 250 419.06 145.14 418.89 92.72 418.81 40.29 418.56" style="fill:#263238"></polygon></g><g id="freepik--Balloons--inject-11"><path d="M79.51,219.63a85,85,0,0,1-9.09-22.74c-1.91-8.35-2-16.87-1.42-25.38.73-10.78,1.91-21.55,2.86-32.31,0-.18.27-.13.26,0-.72,9.3-1.44,18.6-2.08,27.91-.59,8.66-1,17.4.55,26,3,17,12.3,32.23,23.29,45.28,6.84,8.13,14.45,15.6,22,23,.08.08,0,.22-.11.14C102.24,249,88.7,235.84,79.51,219.63Z" style="fill:#263238"></path><path d="M74,137s3.21,7.91,2.8,8.38-10.83,1.36-11.09.94.93-8.71.93-8.71Z" style="fill:#D36AF8"></path><path d="M65.12,72.52C82.8,71,98.32,84,99.15,105.65S80.5,138.23,71.6,139c-6.42.54-32.39-2.58-34.67-29.75C35,86,47.5,74,65.12,72.52Z" style="fill:#D36AF8"></path><circle cx="60.6" cy="95.07" r="19.64" transform="translate(-46.84 60.92) rotate(-39.85)" style="fill:#fff;opacity:0.2"></circle><circle cx="57.46" cy="90.43" r="11.75" transform="translate(-42.16 129.88) rotate(-79.17)" style="fill:#fff;opacity:0.4"></circle><path d="M85.5,262.74c-4.51-13.62-3.1-27.52-.17-41.32a129.26,129.26,0,0,1,7.18-23.67c.07-.18.32-.05.26.12a120.8,120.8,0,0,0-6.11,21.19,143,143,0,0,0-3.12,21.19c-.74,14.07,3.64,27.23,10.5,39.36,3.87,6.83,8.34,13.27,12.79,19.72.12.16-.14.34-.26.17C98.35,288.1,90,276.22,85.5,262.74Z" style="fill:#263238"></path><path d="M94.84,200.23s.64,8.51.11,8.84-10.73-2-10.84-2.49,3.53-8,3.53-8Z" style="fill:#455a64"></path><path d="M106.06,136.11c17.29,4,28.11,21.06,22.28,41.93s-27.7,25.33-36.4,23.33C85.66,199.93,61.88,189,68,162.45,73.23,139.74,88.83,132.14,106.06,136.11Z" style="fill:#455a64"></path><path d="M106.06,136.11c17.29,4,28.11,21.06,22.28,41.93s-27.7,25.33-36.4,23.33C85.66,199.93,61.88,189,68,162.45,73.23,139.74,88.83,132.14,106.06,136.11Z" style="fill:#455a64"></path><circle cx="93.08" cy="158.57" r="19.64" transform="translate(-82.39 213.5) rotate(-76.97)" style="fill:#fff;opacity:0.2"></circle><path d="M80.22,160.52a11.74,11.74,0,1,0,3.14-16.32A11.74,11.74,0,0,0,80.22,160.52Z" style="fill:#fff;opacity:0.4"></path><path d="M450.24,260.85A84.36,84.36,0,0,0,454,236.78c0-8.52-1.79-16.79-4.23-24.92-3.1-10.29-6.63-20.47-9.93-30.7-.05-.16-.3-.06-.25.1,2.76,8.86,5.52,17.72,8.2,26.6,2.49,8.27,4.79,16.66,5.22,25.33.85,17.17-4.79,34-12.56,49.07-4.83,9.39-10.55,18.31-16.27,27.18-.06.1.07.21.14.11C434.71,294.4,444.92,278.6,450.24,260.85Z" style="fill:#263238"></path><path d="M436.2,181.05s.59,8.47,1.16,8.72,10.27-3.53,10.32-4-4.63-7.37-4.63-7.37Z" style="fill:#37474f"></path><path d="M416,119.54c-16.44,6.4-24.65,24.76-15.92,44.47s30.9,21,39.17,17.74c6-2.32,27.81-16.46,18-41.73C448.8,118.42,432.36,113.17,416,119.54Z" style="fill:#37474f"></path><circle cx="419.78" cy="142.71" r="19.54" style="fill:#fff;opacity:0.2"></circle><path d="M407.41,146.55a11.69,11.69,0,1,0,.66-16.51A11.68,11.68,0,0,0,407.41,146.55Z" style="fill:#fff;opacity:0.4"></path><path d="M416.89,325.9c7.76-12,9.9-25.71,10.54-39.72a128.74,128.74,0,0,0-.95-24.59c0-.18-.3-.12-.28.06a120.69,120.69,0,0,1,.55,21.92,143.24,143.24,0,0,1-2.32,21.18c-2.82,13.73-10.35,25.29-20,35.24-5.43,5.6-11.35,10.67-17.26,15.76-.15.13,0,.36.21.23C398.15,347.07,409.21,337.75,416.89,325.9Z" style="fill:#263238"></path><path d="M423.61,263.4s-2.75,8-2.33,8.48,10.83.75,11.06.32-1.39-8.59-1.39-8.59Z" style="fill:#D36AF8"></path><path d="M428.93,198.87c-17.64-.51-32.35,13.2-32,34.75s20.3,31.34,29.17,31.6c6.41.19,32-4.33,32.82-31.44C459.61,210.62,446.51,199.38,428.93,198.87Z" style="fill:#D36AF8"></path><path d="M403.43,227.21a19.53,19.53,0,1,0,13.72-24A19.54,19.54,0,0,0,403.43,227.21Z" style="fill:#fff;opacity:0.2"></path><path d="M409.54,219.78a11.69,11.69,0,1,0,8.21-14.35A11.68,11.68,0,0,0,409.54,219.78Z" style="fill:#fff;opacity:0.4"></path></g><g id="freepik--Gifts--inject-11"><path d="M400.57,346.76c1-3.29-.51-7.75-8.45-9.94-12.05-3.33-20.72,9.15-21.76,10.73,1.11-1.82,11.62-18.27,23.8-15C403.79,335.18,403.25,342.61,400.57,346.76Z" style="fill:#455a64"></path><path d="M400.57,346.76a6.6,6.6,0,0,1-3.17,2.77c-4.24,1.3-13.86,2.11-26.31-1.57l-.83-.25a1.43,1.43,0,0,1,.1-.16l.06-.1.1,0c13.1,1.9,22.22.5,26-.85a5,5,0,0,0,2.79-4.41,6.65,6.65,0,0,0-.07-1.47A6.27,6.27,0,0,1,400.57,346.76Z" style="fill:#37474f"></path><path d="M392.73,329.57c-1.62-3.82-6-7.39-13.76-5.05-11.78,3.55-9.49,20.84-9.16,23-.45-2.43-4.18-24.7,7.67-28.35C386.86,316.27,391.81,323.94,392.73,329.57Z" style="fill:#455a64"></path><path d="M392.73,329.57a6.92,6.92,0,0,1-.46,4.54c-2.35,3.7-9.25,10-21.6,13.39l-.82.22a1.76,1.76,0,0,1,0-.21s0-.08,0-.13l.09,0c11.56-5.56,17.64-12.12,19.58-15.58.75-1.36.37-3.8-1-6a9.24,9.24,0,0,0-1.12-1.41A9.31,9.31,0,0,1,392.73,329.57Z" style="fill:#37474f"></path><path d="M339,346.76c-1-3.29.51-7.75,8.45-9.94,12.05-3.33,20.72,9.15,21.76,10.73-1.11-1.82-11.62-18.27-23.8-15C335.79,335.18,336.33,342.61,339,346.76Z" style="fill:#455a64"></path><path d="M339,346.76a6.56,6.56,0,0,0,3.17,2.77c4.24,1.3,13.86,2.11,26.31-1.57l.83-.25-.1-.16-.06-.1-.1,0c-13.1,1.9-22.22.5-26-.85a5,5,0,0,1-2.79-4.41,6.65,6.65,0,0,1,.07-1.47A6.27,6.27,0,0,0,339,346.76Z" style="fill:#37474f"></path><path d="M346.05,329.57c1.62-3.82,6-7.39,13.76-5.05,11.78,3.55,9.49,20.84,9.16,23,.45-2.43,4.18-24.7-7.67-28.35C351.92,316.27,347,323.94,346.05,329.57Z" style="fill:#455a64"></path><path d="M346.05,329.57a6.92,6.92,0,0,0,.46,4.54c2.35,3.7,9.24,10,21.6,13.39l.82.22a1.76,1.76,0,0,0,0-.21.69.69,0,0,1,0-.13l-.09,0c-11.56-5.56-17.64-12.12-19.58-15.58-.76-1.36-.38-3.8,1-6a10,10,0,0,1,1.13-1.41A9.31,9.31,0,0,0,346.05,329.57Z" style="fill:#37474f"></path><polygon points="395.27 418.56 336.61 418.56 334.11 347.22 397.97 348.54 395.27 418.56" style="fill:#D36AF8"></polygon><polygon points="395.27 418.56 336.61 418.56 334.11 347.22 397.97 348.54 395.27 418.56" style="opacity:0.1"></polygon><polygon points="416.75 418.56 395.27 418.56 396.16 348.54 419.38 350.39 416.75 418.56" style="fill:#D36AF8"></polygon><g style="opacity:0.2"><polygon points="416.75 418.56 395.27 418.56 396.16 348.54 419.38 350.39 416.75 418.56"></polygon></g><polygon points="330.61 347.15 332.1 362.57 396.16 362.57 396.16 344 330.61 347.15" style="fill:#D36AF8"></polygon><polygon points="330.61 347.15 332.1 362.57 396.16 362.57 396.16 344 330.61 347.15" style="opacity:0.2"></polygon><polygon points="421.39 362.57 396.16 362.57 396.16 344 423.83 347.27 421.39 362.57" style="fill:#D36AF8"></polygon><polygon points="421.39 362.57 396.16 362.57 396.16 344 423.83 347.27 421.39 362.57" style="opacity:0.30000000000000004"></polygon><polygon points="413.95 346.1 409.23 418.44 403.84 418.44 406.83 345.26 413.95 346.1" style="fill:#37474f"></polygon><polygon points="372.04 345.24 372.04 418.56 357.87 418.56 356.27 345.96 372.04 345.24" style="fill:#455a64"></polygon><path d="M360.9,384.39a6.83,6.83,0,0,1-1.08,3.37c0-.23-.08-.46-.14-.7a6.44,6.44,0,0,0-.2-.72,13.77,13.77,0,0,0-2.63-4.53c-.13-.15-.25-.3-.39-.45l-.1-.12h0l-.19-.21c-10.62-13.45-20.73,8.35-20.94,8.85h0s-.58-21.74,11-22.35C355.32,367.07,361.43,377.67,360.9,384.39Z" style="fill:#D36AF8"></path><path d="M359.82,387.76a4.51,4.51,0,0,1-.95,1c-5.54,4.24-22.54,1.32-23.6,1.14h0c16,1.54,20.37-4.28,21.14-8.65l.1.12c.14.15.26.3.39.45a14.13,14.13,0,0,1,2.63,4.53c.08.24.14.49.2.72S359.78,387.53,359.82,387.76Z" style="fill:#D36AF8"></path><path d="M359.82,387.76a4.51,4.51,0,0,1-.95,1c-5.54,4.24-22.54,1.32-23.6,1.14h0c16,1.54,20.37-4.28,21.14-8.65l.1.12c.14.15.26.3.39.45a14.13,14.13,0,0,1,2.63,4.53c.08.24.14.49.2.72S359.78,387.53,359.82,387.76Z" style="opacity:0.2"></path><path d="M309.14,386.86a6.75,6.75,0,0,0,1.4,3.25,5.53,5.53,0,0,1,.07-.7c0-.25.08-.5.13-.75a13.79,13.79,0,0,1,2.19-4.76l.34-.48.09-.13h0l.17-.22c9.29-14.41,21.43,6.33,21.69,6.81h0s-1.49-21.7-13.09-21.2C313.05,369.09,308,380.23,309.14,386.86Z" style="fill:#D36AF8"></path><path d="M310.54,390.11a4.31,4.31,0,0,0,1,.91c5.91,3.69,22.56-.83,23.59-1.11l.05,0c-15.76,3.05-20.68-2.32-21.86-6.6l-.09.13-.34.48a14.06,14.06,0,0,0-2.19,4.76c-.05.25-.1.5-.13.75A5.53,5.53,0,0,0,310.54,390.11Z" style="fill:#D36AF8"></path><path d="M310.54,390.11a4.31,4.31,0,0,0,1,.91c5.91,3.69,22.56-.83,23.59-1.11l.05,0c-15.76,3.05-20.68-2.32-21.86-6.6l-.09.13-.34.48a14.06,14.06,0,0,0-2.19,4.76c-.05.25-.1.5-.13.75A5.53,5.53,0,0,0,310.54,390.11Z" style="opacity:0.2"></path><polygon points="366.32 418.56 304.51 418.56 309.61 392.46 360.14 394.62 366.32 418.56" style="fill:#455a64"></polygon><polygon points="380.58 418.56 361.39 418.56 358.7 394.62 377.15 396.23 380.58 418.56" style="fill:#37474f"></polygon><polygon points="303.67 392.46 303.67 406.08 358.7 404.39 358.7 388.81 303.67 392.46" style="fill:#37474f"></polygon><polygon points="379.4 406.08 358.7 404.39 358.7 388.81 380.58 392.46 379.4 406.08" style="fill:#263238"></polygon><polygon points="339.95 418.56 327.02 418.56 325.71 391 340.99 389.99 339.95 418.56" style="fill:#D36AF8"></polygon><polygon points="369.31 418.56 373.71 418.56 373.32 391.25 367.17 390.23 369.31 418.56" style="fill:#D36AF8"></polygon><path d="M411.36,316.72a4.68,4.68,0,0,0,1,2.21,4,4,0,0,1,0-.49c0-.17.05-.34.08-.52a9.51,9.51,0,0,1,1.42-3.31l.23-.34.06-.09h0a.91.91,0,0,0,.11-.16c6.14-10.08,14.87,4,15.06,4.31h0S428,303.42,420,304C413.74,304.4,410.44,312.16,411.36,316.72Z" style="fill:#455a64"></path><path d="M412.39,318.93a2.82,2.82,0,0,0,.73.6c4.14,2.44,15.52-1,16.23-1.18h0c-10.8,2.38-14.28-1.23-15.17-4.16l-.06.09-.23.34a9.7,9.7,0,0,0-1.42,3.31c0,.18-.06.35-.08.52A4,4,0,0,0,412.39,318.93Z" style="fill:#263238"></path><path d="M447,314.11a4.63,4.63,0,0,1-.69,2.33,4.52,4.52,0,0,0-.11-.47,4.74,4.74,0,0,0-.15-.5,9.6,9.6,0,0,0-1.89-3.07l-.27-.31-.08-.07h0l-.13-.14c-7.55-9.08-14.13,6.11-14.27,6.46h0s-.78-15,7.19-15.58C442.82,302.27,447.21,309.47,447,314.11Z" style="fill:#455a64"></path><path d="M446.28,316.44a3.1,3.1,0,0,1-.64.71c-3.73,3-15.49,1.3-16.22,1.2h0c11,.78,13.95-3.3,14.4-6.32l.08.07.27.31a9.6,9.6,0,0,1,1.89,3.07,4.74,4.74,0,0,1,.15.5A4.52,4.52,0,0,1,446.28,316.44Z" style="fill:#263238"></path><polygon points="450.01 418.56 407.98 418.56 409.52 320.91 445.81 319.62 450.01 418.56" style="fill:#D36AF8"></polygon><polygon points="450.01 418.56 407.98 418.56 409.52 320.91 445.81 319.62 450.01 418.56" style="fill:#fff;opacity:0.6000000000000001"></polygon><polygon points="458.61 418.56 446.67 418.56 444.84 319.62 457.15 321.92 458.61 418.56" style="fill:#D36AF8"></polygon><polygon points="407.41 319.73 407.41 330.11 444.84 328.83 444.84 316.94 407.41 319.73" style="fill:#D36AF8"></polygon><polygon points="407.41 319.73 407.41 330.11 444.84 328.83 444.84 316.94 407.41 319.73" style="fill:#fff;opacity:0.4"></polygon><polygon points="458.91 330.11 444.84 328.83 444.84 316.94 459.71 319.73 458.91 330.11" style="fill:#D36AF8"></polygon><polygon points="458.91 330.11 444.84 328.83 444.84 316.94 459.71 319.73 458.91 330.11" style="opacity:0.1"></polygon><polygon points="419.47 318.83 419.84 418.56 429.76 418.56 429.92 318.06 419.47 318.83" style="fill:#455a64"></polygon><polygon points="450.76 318.06 454.5 318.75 454.5 418.56 451.38 418.56 450.76 318.06" style="fill:#455a64"></polygon><path d="M422.93,369.4c.64-2.17-.34-5.11-5.57-6.55-7.95-2.19-13.66,6-14.35,7.07.74-1.19,7.66-12,15.69-9.87C425.05,361.77,424.69,366.67,422.93,369.4Z" style="fill:#D36AF8"></path><path d="M422.93,369.4a4.31,4.31,0,0,1-2.09,1.83c-2.79.86-9.14,1.39-17.35-1L403,370l.06-.11,0-.06h.07c8.63,1.25,14.65.33,17.11-.56a3.27,3.27,0,0,0,1.84-2.9,4,4,0,0,0-.05-1A4.11,4.11,0,0,1,422.93,369.4Z" style="fill:#D36AF8"></path><path d="M422.93,369.4a4.31,4.31,0,0,1-2.09,1.83c-2.79.86-9.14,1.39-17.35-1L403,370l.06-.11,0-.06h.07c8.63,1.25,14.65.33,17.11-.56a3.27,3.27,0,0,0,1.84-2.9,4,4,0,0,0-.05-1A4.11,4.11,0,0,1,422.93,369.4Z" style="opacity:0.2"></path><path d="M417.76,358.07c-1.07-2.51-4-4.87-9.07-3.33-7.77,2.34-6.26,13.74-6,15.15-.29-1.6-2.76-16.28,5.06-18.68C413.89,349.3,417.16,354.36,417.76,358.07Z" style="fill:#D36AF8"></path><path d="M417.76,358.07a4.63,4.63,0,0,1-.3,3c-1.55,2.44-6.1,6.56-14.24,8.82l-.54.15,0-.15s0-.05,0-.08,0,0,.06,0c7.62-3.66,11.63-8,12.9-10.27.5-.89.25-2.5-.67-3.92a6.57,6.57,0,0,0-.74-.93A6.17,6.17,0,0,1,417.76,358.07Z" style="fill:#D36AF8"></path><path d="M417.76,358.07a4.63,4.63,0,0,1-.3,3c-1.55,2.44-6.1,6.56-14.24,8.82l-.54.15,0-.15s0-.05,0-.08,0,0,.06,0c7.62-3.66,11.63-8,12.9-10.27.5-.89.25-2.5-.67-3.92a6.57,6.57,0,0,0-.74-.93A6.17,6.17,0,0,1,417.76,358.07Z" style="opacity:0.2"></path><path d="M382.35,369.4c-.65-2.17.34-5.11,5.57-6.55,7.94-2.19,13.66,6,14.34,7.07-.73-1.19-7.66-12-15.68-9.87C380.23,361.77,380.58,366.67,382.35,369.4Z" style="fill:#D36AF8"></path><path d="M382.35,369.4a4.27,4.27,0,0,0,2.09,1.83c2.79.86,9.13,1.39,17.34-1l.55-.16-.07-.11,0-.06h-.06c-8.64,1.25-14.65.33-17.12-.56a3.31,3.31,0,0,1-1.84-2.9,4.51,4.51,0,0,1,.05-1A4.13,4.13,0,0,0,382.35,369.4Z" style="fill:#D36AF8"></path><path d="M382.35,369.4a4.27,4.27,0,0,0,2.09,1.83c2.79.86,9.13,1.39,17.34-1l.55-.16-.07-.11,0-.06h-.06c-8.64,1.25-14.65.33-17.12-.56a3.31,3.31,0,0,1-1.84-2.9,4.51,4.51,0,0,1,.05-1A4.13,4.13,0,0,0,382.35,369.4Z" style="opacity:0.2"></path><path d="M387,358.07c1.07-2.51,4-4.87,9.07-3.33,7.77,2.34,6.26,13.74,6,15.15.29-1.6,2.75-16.28-5.06-18.68C390.86,349.3,387.59,354.36,387,358.07Z" style="fill:#D36AF8"></path><path d="M387,358.07a4.63,4.63,0,0,0,.3,3c1.55,2.44,6.1,6.56,14.24,8.82l.54.15,0-.15s0-.05,0-.08,0,0-.06,0c-7.62-3.66-11.63-8-12.9-10.27-.5-.89-.25-2.5.67-3.92a5.92,5.92,0,0,1,.74-.93A6.11,6.11,0,0,0,387,358.07Z" style="fill:#D36AF8"></path><path d="M387,358.07a4.63,4.63,0,0,0,.3,3c1.55,2.44,6.1,6.56,14.24,8.82l.54.15,0-.15s0-.05,0-.08,0,0-.06,0c-7.62-3.66-11.63-8-12.9-10.27-.5-.89-.25-2.5.67-3.92a5.92,5.92,0,0,1,.74-.93A6.11,6.11,0,0,0,387,358.07Z" style="opacity:0.2"></path><polygon points="422.12 418.56 380.05 418.56 378.32 372.26 423.97 373.81 422.12 418.56" style="fill:#37474f"></polygon><polygon points="436.87 418.56 422.12 418.56 422.73 373.81 438.68 375.58 436.87 418.56" style="fill:#455a64"></polygon><polygon points="374.9 371.5 375.92 386.19 422.73 386.19 422.73 368.5 374.9 371.5" style="fill:#263238"></polygon><polygon points="439.51 385.75 422.73 386.19 422.73 368.5 441.06 372.26 439.51 385.75" style="fill:#37474f"></polygon><polygon points="434.78 370.98 431.71 418.56 428 418.56 430.06 370.01 434.78 370.98" style="fill:#D36AF8"></polygon><polygon points="434.78 370.98 431.71 418.56 428 418.56 430.06 370.01 434.78 370.98" style="opacity:0.1"></polygon><polygon points="404.39 369.68 404.39 418.56 394.65 418.56 393.54 370.37 404.39 369.68" style="fill:#D36AF8"></polygon></g><g id="freepik--Plant--inject-11"><path d="M83.13,253.68S60,250.44,65.4,222.5C65.4,222.5,91.26,228.31,83.13,253.68Z" style="fill:#D36AF8"></path><path d="M83.13,253.68S60,250.44,65.4,222.5C65.4,222.5,91.26,228.31,83.13,253.68Z" style="opacity:0.1"></path><path d="M82,247.85a44.37,44.37,0,0,0-1.57-4.16c0-.18,0-.36-.06-.53,0-.39-.07-.77-.1-1.16-.06-.83-.12-1.66-.16-2.5-.1-1.67-.21-3.34-.24-5a.07.07,0,0,0-.14,0c0,1.68,0,3.35,0,5,0,.84.08,1.67.13,2.5,0,.19,0,.37,0,.56a49.62,49.62,0,0,0-4.64-7.94,39.06,39.06,0,0,0-2.53-3.2c-.92-1.06-1.89-2.07-2.83-3.11-.06-.07-.16,0-.09.1a42.37,42.37,0,0,1,4.46,5.93c.7,1.07,1.36,2.16,2,3.27l-.21-.09-.83-.33c-.62-.24-1.25-.48-1.89-.71L69.6,235.1c-.07,0-.12.1,0,.13,1.23.49,2.45,1,3.67,1.54l1.79.77.9.37a3.26,3.26,0,0,0,.62.22c.46.83.92,1.67,1.35,2.53a62,62,0,0,1,2.83,6.67l.16.48A12.58,12.58,0,0,0,79,246.9l-2.4-1.1c-1.62-.74-3.23-1.5-4.79-2.38a.07.07,0,0,0-.07.13c1.59.87,3.15,1.79,4.75,2.65.79.44,1.59.86,2.41,1.25a7.26,7.26,0,0,0,2.17.87,27.4,27.4,0,0,1,1.52,6.57c.26,3.16.23,6.34.3,9.51,0,.05.08.05.09,0,.23-2.88.36-5.78.37-8.66A25,25,0,0,0,82,247.85Z" style="fill:#263238"></path><path d="M78.4,231.42a28,28,0,0,0-.23,4.93s.07,0,.07,0c.09-1.64.11-3.27.3-4.89C78.55,231.37,78.41,231.33,78.4,231.42Z" style="fill:#263238"></path><path d="M71.78,232.82a18.18,18.18,0,0,1-3-1.46.07.07,0,1,0-.07.12,11.52,11.52,0,0,0,3,1.44C71.8,232.93,71.84,232.84,71.78,232.82Z" style="fill:#263238"></path><path d="M83.87,298c0-2.56-.07-5.12-.1-7.68,0-8.49-.11-17-.27-25.47q-.18-10.12-.47-20.23a.1.1,0,0,0-.06-.09c0-1.84,0-3.68,0-5.52,0-.05-.06-.07-.11-.07s-.12,0-.12.07l0,5.54a.09.09,0,0,0,0,.08c-.34,12-.65,24-.72,36,0,2.44,0,4.88,0,7.32q-.12,11.75-.09,23.48l0,3.73c0,7.16.08,14.32.08,21.48,0,.39.43.58.88.6s1.07-.19,1.07-.63c0-7.89.06-15.79.06-23.68C83.89,308,83.91,303,83.87,298Z" style="fill:#263238"></path><path d="M74.21,290.27s-11.13-8.25-21.7-2.68-12.22,27.06-12.22,27.06,15.51,2.22,25.28-7.08C75,298.61,74.21,290.27,74.21,290.27Z" style="fill:#D36AF8"></path><path d="M77.24,290.78a13.33,13.33,0,0,0-6.45-.85,10.26,10.26,0,0,0-1.36-.13l-1.57-.12-3.25-.23c-2.19-.16-4.39-.29-6.59-.51-.07,0-.09.12,0,.13,2.17.28,4.33.59,6.5.81,1.12.11,2.24.23,3.36.31l.82.08q-.51.11-1,.24a27.28,27.28,0,0,0-5.05,2.05c-.87.16-1.74.41-2.6.61-1.38.32-2.75.68-4.12,1-2.7.7-5.38,1.5-8.06,2.28a.07.07,0,0,0,0,.14c2.68-.66,5.37-1.26,8.06-1.9l3.91-.94,1-.24A32.88,32.88,0,0,0,53,300.43a43.12,43.12,0,0,0-5.49,8.68.07.07,0,0,0,.12.07,41.84,41.84,0,0,1,6.65-8.73l-.15.44c-.2.66-.41,1.31-.61,2-.42,1.31-.83,2.62-1.23,3.94,0,.08.11.11.14,0,.47-1.27.92-2.55,1.36-3.83.23-.62.45-1.25.67-1.88l.33-1c0-.1.07-.2.11-.3a39.19,39.19,0,0,1,3.94-3.37,30.33,30.33,0,0,1,5.91-3.38c0,.19-.07.38-.11.57l-.33,1.52c-.21,1.05-.42,2.11-.62,3.17-.42,2.15-.68,4.33-1.09,6.49,0,.08.12.12.14,0,.5-2.17,1.14-4.3,1.62-6.47.25-1.09.49-2.17.72-3.26.1-.51.2-1,.31-1.53.05-.28.12-.56.15-.85l.61-.25c2.92-1.08,6.15-1.87,9.26-1.27a9.1,9.1,0,0,1,6.7,5.37c.1.24.48.09.43-.16A8.59,8.59,0,0,0,77.24,290.78Z" style="fill:#263238"></path><path d="M60.2,300c-.31,1.41-.63,2.82-.94,4.23a32.16,32.16,0,0,0-.78,4.12c0,.05.08.05.09,0a31.16,31.16,0,0,0,1-4.15c.27-1.39.55-2.78.82-4.18C60.35,299.9,60.22,299.86,60.2,300Z" style="fill:#263238"></path><path d="M49.43,303.53c-1.41.72-2.79,1.54-4.27,2.13a.07.07,0,1,0,.06.13,44.94,44.94,0,0,0,4.25-2.2S49.47,303.52,49.43,303.53Z" style="fill:#263238"></path><path d="M76.71,275.12S63.1,276,56.78,267s-4.91-21.79-4.91-21.79,14.29,1.74,20,8.18S76.71,275.12,76.71,275.12Z" style="fill:#D36AF8"></path><path d="M83.1,288.55c-.48-1.46-1.06-2.9-1.61-4.33s-1.09-2.73-1.69-4.07a82.73,82.73,0,0,0-4.08-8c-1-1.65-2-3.26-3-4.84,0-.24-.07-.48-.1-.72-.07-.43-.13-.85-.19-1.27-.14-.86-.29-1.72-.43-2.58-.32-1.88-.7-3.74-1-5.62,0-.09-.16-.09-.14,0,.27,1.86.46,3.72.72,5.58.12.91.24,1.83.38,2.74,0,.33.11.66.16,1a97.91,97.91,0,0,0-6.73-8.73c-.33-.38-.66-.74-1-1.11,0-.11-.08-.21-.12-.32l-.3-.77c-.2-.54-.39-1.09-.59-1.63-.38-1.06-.72-2.14-1-3.23,0-.09-.16-.05-.14,0,.28,1.12.57,2.23.9,3.33.15.54.33,1.06.52,1.58l.09.27c-1.74-1.9-3.55-3.73-5.38-5.53-.07-.06-.16,0-.1.1a96.65,96.65,0,0,1,9.64,11.81,7.09,7.09,0,0,0-1-.25c-1-.21-2.1-.36-3.16-.49-2.22-.28-4.43-.56-6.63-.91-.09,0-.13.12,0,.14,2.11.41,4.2.89,6.29,1.37,1,.22,2,.42,3,.61a21.73,21.73,0,0,1,2.39.68l.66.95c1,1.45,2,2.93,2.9,4.43l-1.39-.28c-1-.2-2.11-.39-3.16-.56-2.08-.34-4.16-.71-6.21-1.17a.07.07,0,0,0,0,.14c2.08.48,4.14,1.05,6.21,1.6,1,.27,2,.51,3,.73l1.51.33a5.43,5.43,0,0,0,.62.11c2,3.22,3.85,6.52,5.58,9.88.76,1.48,1.48,3,2.19,4.48s1.35,3.13,2,4.69C82.71,289,83.21,288.89,83.1,288.55Z" style="fill:#263238"></path><path d="M69.17,257.28c-.26-1.3-.53-2.6-.82-3.89,0-.09-.15,0-.14,0,.26,1.28.51,2.56.74,3.84a37.79,37.79,0,0,0,.77,3.81,0,0,0,0,0,0,0A26.91,26.91,0,0,0,69.17,257.28Z" style="fill:#263238"></path><path d="M61.23,256.9a19.6,19.6,0,0,0-1.95-.82l-1-.41-.53-.21a2.41,2.41,0,0,1-.57-.25c-.11-.08-.17.1-.07.12a2.09,2.09,0,0,1,.58.24l.52.23,1,.44a20.51,20.51,0,0,0,2,.8A.08.08,0,0,0,61.23,256.9Z" style="fill:#263238"></path><path d="M90.64,264.42S98.87,249,111.4,246.66s20.19,10.51,20.19,10.51-9.14,11.67-20.63,13.7S90.64,264.42,90.64,264.42Z" style="fill:#D36AF8"></path><path d="M119.79,253.55a34,34,0,0,0-9.82.12c.18-.1.37-.21.56-.3l2.78-1.43a63.86,63.86,0,0,1,5.88-2.87.07.07,0,1,0-.06-.13c-2,.91-4,1.68-6,2.58-1,.45-2,.92-2.9,1.43-.62.33-1.31.64-1.91,1a34,34,0,0,0-8,2.65l1.56-1.71c1.17-1.28,2.32-2.62,3.6-3.79.07-.06,0-.15-.1-.09-1.31,1.19-2.7,2.29-4,3.53-.62.6-1.21,1.22-1.78,1.86-.29.32-.57.65-.85,1A33,33,0,0,0,82.07,280.1c0,.09.11.13.13,0a37.88,37.88,0,0,1,9.21-15.59,36.27,36.27,0,0,1,16.78-9.71,36.73,36.73,0,0,1,11.58-1A.13.13,0,0,0,119.79,253.55Z" style="fill:#263238"></path><path d="M131.59,257.17s-9.14,11.67-20.63,13.7c-8.77,1.56-16-3-18.92-5.27l-.63-1s5.93-5,17.15-7.88S131.59,257.17,131.59,257.17Z" style="opacity:0.1"></path><path d="M112.52,248.07a30.54,30.54,0,0,0-2.79,1.84,16.81,16.81,0,0,0-2.41,2.21c-.07.07,0,.16.11.1.83-.72,1.66-1.45,2.53-2.13a25.82,25.82,0,0,1,2.63-1.9C112.67,248.14,112.59,248,112.52,248.07Z" style="fill:#263238"></path><path d="M119.39,250.67c-.46.2-.94.36-1.4.56l-1.4.58c-.1,0,0,.2,0,.16l1.4-.57,1.39-.59C119.52,250.78,119.47,250.64,119.39,250.67Z" style="fill:#263238"></path><path d="M89,283.78s2.2,15.26,13.68,20.59,25.45,0,25.45,0S122.62,271.36,89,283.78Z" style="fill:#D36AF8"></path><path d="M120.22,294.45c-1.06-.12-2.11-.3-3.16-.49-.51-.1-1-.19-1.54-.3l-.8-.16-.93-.86a46.61,46.61,0,0,0-7-5.08,37.12,37.12,0,0,0-4.21-2.16h.22l3.78.16c2.51.12,5,.17,7.55.34.09,0,.09-.14,0-.15-2.53-.17-5-.44-7.57-.66l-3.66-.33-1.89-.16-.49-.05q-1-.37-2-.69a17.87,17.87,0,0,0-9.72-.53c-2.88.74-5.76,2.63-6.51,5.67,0,.11.14.18.18.07,1.08-2.54,3.9-3.82,6.45-4.35a15.59,15.59,0,0,1,5.19-.1,12.6,12.6,0,0,0,.58,2.31c.32,1.07.63,2.14,1,3.22.65,2.14,1.37,4.26,2,6.41a.07.07,0,1,0,.13,0c-.53-2.14-1-4.3-1.49-6.45l-.78-3.16a18.26,18.26,0,0,0-.58-2.16,24.82,24.82,0,0,1,3,.7,43.22,43.22,0,0,1,5.2,1.9c.16,1.09.41,2.17.66,3.24.31,1.35.66,2.68,1.09,4,0,.08.14,0,.12,0l0-.25h0c-.26-1.25-.53-2.5-.79-3.74-.22-1-.41-2-.63-3a45.5,45.5,0,0,1,4.18,2.12c0,.31.11.63.15.91.08.52.18,1.05.27,1.57.22,1.17.45,2.35.74,3.51a54.29,54.29,0,0,0,2,6.63.08.08,0,0,0,0,.09l.07.08c0,.06.13,0,.11-.07-.53-2.26-1.14-4.5-1.63-6.77-.25-1.14-.5-2.27-.73-3.41-.11-.57-.22-1.14-.32-1.71,0-.16-.06-.33-.08-.51a48.89,48.89,0,0,1,4.47,3,48.16,48.16,0,0,1,6.83,6.25c.09.09.25,0,.17-.14-.87-1.15-1.74-2.27-2.73-3.34-.58-.61-1.18-1.21-1.79-1.8l.19,0,1.62.24c1.06.14,2.12.25,3.19.37C120.28,294.6,120.31,294.46,120.22,294.45Z" style="fill:#263238"></path><path d="M112.16,299.62h0c0-.13,0-.26-.07-.39s-.11-.33-.14-.5h0c-.24-1-.44-2-.62-3.08,0-.07-.13-.05-.13,0a12.42,12.42,0,0,0,.88,4s.09,0,.08,0Z" style="fill:#263238"></path><path d="M102.55,299.38c0-.05,0-.07-.06-.07-.32-1.35-.63-2.7-.91-4.06-.15-.72-.3-1.43-.44-2.15l-.21-1.16a3.35,3.35,0,0,0-.25-1,.07.07,0,0,0-.13,0,6.86,6.86,0,0,0,.29,2c.14.74.29,1.49.45,2.23.33,1.5.71,3,1.14,4.48a.08.08,0,0,0,.15,0Z" style="fill:#263238"></path><path d="M119.17,290.05c-2.09-.28-4.19-.59-6.28-.84-.09,0-.13.12,0,.14,2.09.31,4.19.57,6.29.84A.07.07,0,0,0,119.17,290.05Z" style="fill:#263238"></path><path d="M83.12,248s-7-30.8,26.07-43.27C109.19,204.73,118.36,245.28,83.12,248Z" style="fill:#D36AF8"></path><path d="M90.26,230.53l.35-.22c.63-.34,1.25-.69,1.87-1l3.84-2.15c2.53-1.41,5-2.88,7.56-4.26a.07.07,0,1,0-.07-.12c-2.55,1.38-5.14,2.68-7.7,4l-3.8,2-1.55.82c1.11-2.1,2.29-4.15,3.58-6.13,1.73-2.63,3.63-5.15,5.6-7.61a.11.11,0,0,0-.16-.15,52.28,52.28,0,0,0-7.65,9.38c0-.11,0-.22,0-.32,0-.77,0-1.53.06-2.3,0-1.5,0-3,0-4.51a.07.07,0,0,0-.14,0c-.06,1.48-.24,3-.33,4.44,0,.73-.07,1.47-.09,2.21,0,.4,0,.85,0,1.29q-1,1.64-1.95,3.3a58.79,58.79,0,0,0-3,6.2c0-.76-.08-1.53-.12-2.3-.1-1.68-.31-3.36-.38-5a.07.07,0,1,0-.14,0c0,1.68,0,3.37,0,5.06,0,.84,0,1.68.11,2.52,0,.31,0,.63,0,1a55.3,55.3,0,0,0-2.49,8.46,90.68,90.68,0,0,0-1.24,9.3s0,0,0,0a49.89,49.89,0,0,1,1.75-8.29c.41-1.46.84-2.9,1.31-4.34,1.38-.65,2.7-1.46,4-2.19s2.77-1.52,4.15-2.28c2.76-1.51,5.51-3.05,8.36-4.39.09,0,0-.16-.07-.12-2.89,1.31-5.79,2.55-8.63,4-1.41.71-2.79,1.47-4.17,2.24-1.15.65-2.33,1.3-3.43,2,.33-1,.66-1.91,1-2.85A82.1,82.1,0,0,1,90.26,230.53Z" style="fill:#263238"></path><path d="M87.47,223.49c0-.09-.15-.09-.14,0,.12,1.76.18,3.51.36,5.27a.08.08,0,0,0,.16,0C87.79,227,87.6,225.24,87.47,223.49Z" style="fill:#263238"></path><path d="M103.33,229.37c-2.07.83-4.16,1.63-6.22,2.49,0,0,0,.12,0,.09,2.09-.78,4.16-1.63,6.24-2.44C103.46,229.47,103.42,229.34,103.33,229.37Z" style="fill:#263238"></path><path d="M106.48,215.16a54.61,54.61,0,0,0-5.89,3.16.09.09,0,0,0,.1.15c1.92-1.12,3.87-2.2,5.86-3.18C106.64,215.24,106.56,215.13,106.48,215.16Z" style="fill:#263238"></path><rect x="58.26" y="314.6" width="47.72" height="50.3" style="fill:#455a64"></rect><rect x="54.97" y="332.4" width="2.44" height="86.16" style="fill:#263238"></rect><rect x="106.57" y="332.4" width="2.44" height="86.16" style="fill:#263238"></rect><rect x="82.07" y="332.4" width="2.44" height="86.16" style="fill:#263238"></rect><rect x="56.19" y="361.68" width="51.59" height="6.97" style="fill:#263238"></rect></g><g id="freepik--Character--inject-11"><path d="M187.49,449.53c-2.54-.87-60.34-45.39-61.46-48.48-.45-1.17,5.55-10,13.1-20.4.07-.11.15-.21.23-.32,1.56-2.15,29.37-38,29.37-38l38,30.06L177,408.63l-.51.62s14.51,26.94,15.38,30.47S190,450.41,187.49,449.53Z" style="fill:#d3766a"></path><path d="M126,401c1.12,3.11,58.92,47.62,61.46,48.49s5.23-6.3,4.36-9.81-15.38-30.47-15.38-30.47l.51-.62,3.68-3.92L143.35,375.1c-1.24,1.46-3.76,4.91-4,5.23l-.24.32C131.58,391.09,125.58,399.88,126,401Z" style="fill:#ebebeb"></path><path d="M187.53,449.81c-2.56-.9-60.6-46.08-61.72-49.21-.43-1.18,5.65-10,13.31-20.48l37.51,29s14.48,27.24,15.35,30.8S190.08,450.71,187.53,449.81Z" style="fill:#D36AF8"></path><path d="M188.5,446.84c-9.54-7.81-48.77-38.42-58.8-45.42-.08-.06-.12,0,0,.06,9.29,7.95,48.76,38.24,58.72,45.52C188.59,447.16,188.71,447,188.5,446.84Z" style="fill:#263238"></path><path d="M189.87,434.94a9.88,9.88,0,0,0-7.67-2.15,9.59,9.59,0,0,0-6.22,3.5c0,.06.06.14.12.09a11.46,11.46,0,0,1,13.67-1.32A.08.08,0,1,0,189.87,434.94Z" style="fill:#263238"></path><path d="M179.65,413.05c-3.85-3.09-9.44-5.23-14.34-3.93-.19.05-.11.32.05.35a68.36,68.36,0,0,1,14,4.11A.31.31,0,0,0,179.65,413.05Z" style="fill:#263238"></path><path d="M181.74,416.56c-3.85-3.09-9.44-5.23-14.34-3.93-.18.05-.11.32,0,.35a68.63,68.63,0,0,1,14,4.11A.31.31,0,0,0,181.74,416.56Z" style="fill:#263238"></path><path d="M183.84,420.07c-3.86-3.08-9.44-5.22-14.34-3.92-.19.05-.12.32.05.35a67.71,67.71,0,0,1,14,4.1A.31.31,0,0,0,183.84,420.07Z" style="fill:#263238"></path><path d="M185.93,423.58c-3.85-3.08-9.44-5.22-14.34-3.92-.19,0-.11.32,0,.35a67.73,67.73,0,0,1,14,4.11A.32.32,0,0,0,185.93,423.58Z" style="fill:#263238"></path><path d="M139.38,394.11c-4.38-3.39-9.66,3.41-5.27,6.8S143.76,397.5,139.38,394.11Z" style="fill:#fff"></path><path d="M192,405.93c-.7-3.17-4.43-3.5-7-2.75a25.85,25.85,0,0,0-11.29,7.2.13.13,0,0,0,0,.21.6.6,0,0,0,.45.86c4.27.24,8.8,1,13-.05C189.65,410.77,192.61,408.93,192,405.93Zm-11.23,4.56c-2.1-.07-4.18-.24-6.28-.23,2.2-1.4,4.34-2.88,6.68-4.06a27.42,27.42,0,0,1,3.47-1.52c1.85-.63,8.2-.91,5.29,3.63C188.28,410.81,183.23,410.57,180.72,410.49Z" style="fill:#263238"></path><path d="M162.89,404.29c3,3.16,7.24,4.92,11,7a.61.61,0,0,0,.85-.49.13.13,0,0,0,.14-.15,25.8,25.8,0,0,0-5.7-12.12c-1.74-2-5.07-3.7-7.35-1.4S161.15,402.45,162.89,404.29Zm-.62-4c0-5.4,5.19-1.76,6.41-.24a27.73,27.73,0,0,1,2.12,3.13c1.35,2.25,2.36,4.65,3.48,7-1.77-1.13-3.62-2.1-5.44-3.17C166.69,405.71,162.29,403.22,162.27,400.25Z" style="fill:#263238"></path><path d="M150.75,364.67l37.17,30.94s59.54-70.25,61.72-80.8c2.48-12,9.38-105.94,9.22-110.62-.19-5.68-6.45-30.64-6.45-30.64h-44.6s-6.24,122.86-7.54,126.67C198.88,304.31,150.75,364.67,150.75,364.67Z" style="fill:#37474f"></path><polygon points="146.81 370.55 152.04 360.69 190.68 394.56 183.08 401.23 146.81 370.55" style="fill:#455a64"></polygon><path d="M191.43,386.3c-5.75-5.55-28.17-23.36-31-24.82-.06,0-.15.07-.1.12,2,2.41,21.11,18.08,30.92,24.88C191.39,386.55,191.52,386.38,191.43,386.3Z" style="fill:#263238"></path><path d="M254.62,192a14.93,14.93,0,0,0-1.82-.42,11.7,11.7,0,0,1-1.88-.72,14.11,14.11,0,0,1-3.43-2.43,13,13,0,0,1-2.65-4.25c-.38-.9-2.21-5.68-2.22-5.72s-.19,0-.17.07c.13.67,1.38,4.8,1.75,5.83a13.53,13.53,0,0,0,2.75,4.94,11,11,0,0,0,3.81,2.56,8.14,8.14,0,0,0,2,.55,3.3,3.3,0,0,0,1.87-.11C254.77,192.27,254.7,192.06,254.62,192Z" style="fill:#263238"></path><path d="M215.17,175.73l-.94,24.67-1.07,24.67-2.37,49.33c-.45,8.22-.88,16.43-1.4,24.66-.06,1-.15,2.06-.25,3.12a1.19,1.19,0,0,1-.09.47,3.72,3.72,0,0,1-.2.4c-.13.24-.28.46-.42.69-.28.44-.58.86-.87,1.29-1.2,1.69-2.44,3.34-3.68,5-2.49,3.28-5.06,6.5-7.62,9.73q-7.69,9.64-15.5,19.22L165,358l15.34-19.35c5.11-6.45,10.22-12.9,15.27-19.39q3.8-4.87,7.51-9.79c1.24-1.64,2.47-3.29,3.65-5,.29-.42.57-.84.85-1.27s.59-.85.57-1.21c.08-1,.16-2,.22-3,.48-8.2.89-16.43,1.3-24.65l2.6-49.31,1.37-24.65Z" style="fill:#263238"></path><path d="M250.53,308.26c-.33,3-.62,5.28-.89,6.55-1.22,5.92-20.54,30.68-37.24,51.24l-11.46-72c2.05-25.56,6.87-120.48,6.87-120.48H230Z" style="fill:#263238"></path><path d="M313.44,448c-2.36,1.3-74.14,14.34-77.18,13.1-1.17-.46-3.68-10.8-6.35-23.4l-.08-.39c-.56-2.59-7-46.66-7-46.66l43-7.93L276,428.39l.13.79s29.71,7.3,32.92,9S315.8,446.72,313.44,448Z" style="fill:#d3766a"></path><path d="M228.78,432.33c.35,1.7.69,3.36,1.05,5l.07.4c2.68,12.58,5.19,22.94,6.36,23.39,3,1.24,74.83-11.8,77.18-13.1s-1.17-8.1-4.36-9.82-32.91-9-32.91-9l-.13-.79-.77-4.91Z" style="fill:#ebebeb"></path><path d="M314.07,448.06c-2.38,1.29-74.79,14.2-77.87,12.95-1.16-.47-3.66-10.91-6.31-23.61L276.55,429s29.93,7.46,33.16,9.19S316.45,446.76,314.07,448.06Z" style="fill:#D36AF8"></path><path d="M312.51,445.35c-12.19,1.86-61.19,10.53-73.1,13.3-.09,0-.08.09,0,.08,12.12-1.58,61.05-10.65,73.12-13.19C312.8,445.49,312.77,445.31,312.51,445.35Z" style="fill:#263238"></path><path d="M304.58,436.37a9.88,9.88,0,0,0-6.73,4.26,9.62,9.62,0,0,0-1.56,7c0,.07.15.05.15,0a11.45,11.45,0,0,1,8.17-11.05A.08.08,0,0,0,304.58,436.37Z" style="fill:#263238"></path><path d="M281.47,429.32c-4.87.79-10.2,3.51-12.51,8-.09.17.16.29.29.19a69,69,0,0,1,12.41-7.64A.31.31,0,0,0,281.47,429.32Z" style="fill:#263238"></path><path d="M285.48,430.11c-4.87.8-10.2,3.52-12.51,8-.09.17.16.3.3.2a68,68,0,0,1,12.4-7.65A.31.31,0,0,0,285.48,430.11Z" style="fill:#263238"></path><path d="M289.49,430.9c-4.87.8-10.19,3.52-12.5,8-.09.18.16.3.29.2a68,68,0,0,1,12.4-7.64A.31.31,0,0,0,289.49,430.9Z" style="fill:#263238"></path><path d="M293.51,431.7c-4.88.8-10.2,3.52-12.51,8-.09.17.16.3.29.2a68.12,68.12,0,0,1,12.41-7.65A.31.31,0,0,0,293.51,431.7Z" style="fill:#263238"></path><path d="M240.45,446.57c-5.45,1-3.92,9.46,1.54,8.47S245.91,445.58,240.45,446.57Z" style="fill:#fff"></path><path d="M284.41,415.42c-2.82-1.6-5.56.94-6.7,3.33a25.77,25.77,0,0,0-2.2,13.21.12.12,0,0,0,.17.11.61.61,0,0,0,.95.24c3-3,6.64-5.85,8.66-9.7C286.47,420.36,287.08,416.93,284.41,415.42Zm-4.12,11.38c-1.45,1.52-3,3-4.37,4.53a74.39,74.39,0,0,1,1.45-7.69,28,28,0,0,1,1.19-3.59c.77-1.8,4.82-6.71,6.24-1.51C285.59,421.41,282,425,280.29,426.8Z" style="fill:#263238"></path><path d="M263.76,435.91c4.34-.1,8.49-2.09,12.53-3.47a.6.6,0,0,0,.21-.95.13.13,0,0,0,0-.21,26,26,0,0,0-12.82-3.88c-2.65,0-6.14,1.29-6,4.53C257.88,435,261.22,436,263.76,435.91Zm-3.43-2.24c-4-3.58,2.16-5,4.11-4.93a27.74,27.74,0,0,1,3.75.53,75.15,75.15,0,0,1,7.54,2.1c-2,.56-4,1.28-6,1.92C267.35,434,262.55,435.64,260.33,433.67Z" style="fill:#263238"></path><path d="M243.54,173.55s-1.18,19.07-6.44,32.65c0,0-7.59,4.73-8.39,5.48L273.9,415.24l-46.33,9s-18.21-98.62-19.76-105.38c-2.48-10.85-22.16-103.14-23-108.39-1.82-11,8.3-36.93,8.3-36.93Z" style="fill:#37474f"></path><path d="M269.17,405.07c-12.74,1.91-37.1,7.07-40.1,8.31-.07,0,0,.16,0,.16,3.24-.05,32.92-5.94,40.12-8.24C269.34,405.26,269.3,405.05,269.17,405.07Z" style="fill:#263238"></path><path d="M198.78,192c.93-.21,1.92-.14,2.86-.26a22.57,22.57,0,0,0,3-.56,21.33,21.33,0,0,0,5.26-2.15,11.14,11.14,0,0,0,3.83-4.06c.54-.87,3-5.56,3-5.59s.3,0,.27.09c-.14.66-1.75,4.73-2.25,5.75a11.13,11.13,0,0,1-3.94,4.75,17.36,17.36,0,0,1-5.85,2.24,18.37,18.37,0,0,1-3.22.37,8.37,8.37,0,0,1-3-.28C198.57,192.27,198.65,192.06,198.78,192Z" style="fill:#263238"></path><path d="M238.2,205.69A76.3,76.3,0,0,0,226,211.25a.14.14,0,0,0,.11.25c4.11-1.73,8.3-3.37,12.32-5.32A.27.27,0,0,0,238.2,205.69Z" style="fill:#263238"></path><path d="M239.76,177.59c0-.14-.26-.18-.26,0a136.71,136.71,0,0,1-.81,13.69c-.21,2.11-2,13.76-5.67,12.87-.61-.14-.92-.75-1-1.68a14.13,14.13,0,0,1,.52-3.57c.42-2.44.77-4.88,1-7.35a66.31,66.31,0,0,0,0-13.8.12.12,0,0,0-.24,0,126.2,126.2,0,0,1-1.28,19c-.49,3-2.06,7.58,1.11,8.08s5.39-7.13,5.8-9.22A69.45,69.45,0,0,0,239.76,177.59Z" style="fill:#263238"></path><path d="M233.12,204.44a20.25,20.25,0,0,0-.85,2.41,5.64,5.64,0,0,0-.36,2,.15.15,0,0,0,.26.06A6.86,6.86,0,0,0,233,207c.29-.74.59-1.48.85-2.24A.41.41,0,0,0,233.12,204.44Z" style="fill:#263238"></path><path d="M196.88,173.55c-1.26,4.84-2.46,9.69-3.55,14.56s-2.11,9.77-2.72,14.72l-.17,1.85c-.06.62,0,1.23-.06,1.84l.55,3.67,1.39,7.36,3,14.68,12.25,58.7,12.26,58.69L225.9,379l6,29.37-6.51-29.26L219,349.79l-12.49-58.65c-4.05-19.57-8.14-39.13-12-58.75l-2.84-14.72-1.33-7.38-.52-3.75a31.57,31.57,0,0,1,.28-3.78c.7-5,1.82-9.84,3-14.7S195.53,178.36,196.88,173.55Z" style="fill:#263238"></path><polygon points="228.22 428.3 223.63 418.13 274.08 408.35 274.69 418.44 228.22 428.3" style="fill:#455a64"></polygon><path d="M210.74,99.64c-1.44,11.46-5.1,25-1.1,36.24,3.14,8.83,10.72,15.22,18.74,19.57C246,165,271.55,168.12,285.83,151c5.7-6.84,7.78-21.89-.26-28.1-4.13-3.18-9.27-4.25-14.08-6a21.07,21.07,0,0,1-13.28-12.57c-4.93-12.26-3.06-20.8-3.16-33.64a9.16,9.16,0,0,0-2.57-6.94A16.25,16.25,0,0,0,245.25,59a16.18,16.18,0,0,0-7.65-1.9c-5.69.14-11.53,4.91-16.16,7.8s-7,6.21-7.78,11.73C212.58,84.25,211.71,92,210.74,99.64Z" style="fill:#263238"></path><path d="M208.88,105c2-10.42,4.2-20.78,6.33-31.16,0-.06.11-.05.1,0-1.5,8.6-2.89,17.2-4.51,25.78-1.59,8.4-3.8,16.94-4.64,25.45-1.9,19.12,17.16,28.49,33.52,28.86.74,0,.63,1.2-.12,1.16-14.35-.78-31.05-7-34.12-23C203.76,123.4,207.25,113.46,208.88,105Z" style="fill:#263238"></path><path d="M254.2,69.62a.16.16,0,0,1,.32,0c-.37,10.57-1.78,22.85,3.48,32.5a26.71,26.71,0,0,0,11.39,11.06c3.82,1.93,8,2.41,12.07,3.55,15.91,4.47,14.31,26.31,1.88,33.88-.26.16-.54-.29-.29-.46,8.8-5.92,12.49-17.68,6.45-27-4.84-7.49-15.41-6.08-22.48-10.48C252.36,103.57,252.65,84.88,254.2,69.62Z" style="fill:#263238"></path><path d="M244,108.57c10.45,7.26,49.52,33.59,50.2,44.42.62,10-10.6,15-18.39,11.09-5.7-2.83-32.86-36.33-37.84-45.8C233.18,109.26,233.68,101.44,244,108.57Z" style="fill:#c7c7c7"></path><path d="M237.92,118.28c5,9.47,32.14,43,37.84,45.8a12.94,12.94,0,0,0,6.16,1.31l-46.68-57.81C234.55,109.82,235.62,113.91,237.92,118.28Z" style="fill:#263238"></path><path d="M253.82,158.16l.08,20.36L191.7,174s4.69-46.95,29.45-65.85c7.91-6,14.3-3.77,19.06,1.8,1.09,1.27,17.71,25.92,18.29,34.34C259,151.25,253.82,158.16,253.82,158.16Z" style="fill:#c7c7c7"></path><path d="M241.54,153.42a51.83,51.83,0,0,0-9.7.47c-1.61.26-3.21.61-4.82,1-.8.2-1.59.36-2.39.52a8.28,8.28,0,0,1-2.52.19c-.07,0-.09.13,0,.15a14,14,0,0,0,2.34.32,13.71,13.71,0,0,0,2.3-.18c1.64-.24,3.27-.58,4.9-.84,3.3-.53,6.6-1.06,9.9-1.28C241.68,153.76,241.7,153.43,241.54,153.42Z" style="fill:#263238"></path><path d="M248.74,158.31a54.29,54.29,0,0,0-7.75-1.76,37.32,37.32,0,0,0-4-.34c-.63,0-1.27,0-1.91,0s-1.41.12-2.11.11c-.07,0-.09.15,0,.15.66,0,1.31.21,2,.3l2,.25c1.31.17,2.62.36,3.93.52,2.63.31,5.25.65,7.86,1.08C248.84,158.61,248.87,158.35,248.74,158.31Z" style="fill:#263238"></path><path d="M219.06,108.63c-11.27,5.9-49.15,36.14-49.54,47-.36,10,15.25,17.47,22.93,13.4,5.63-3,27.64-40,32.37-49.58C229.32,110.29,228.73,103.56,219.06,108.63Z" style="fill:#c7c7c7"></path><path d="M196.74,164.79c1-1.63,15.93-24.49,17-26.09s2-3.25,3.08-4.82,2.15-3,3.26-4.54c0-.06.13,0,.1.07-.9,1.67-1.84,3.33-2.82,5-.55.91-1.13,1.8-1.71,2.68a32.6,32.6,0,0,1,3.18-3.15c.06,0,.13.05.08.1-.81.93-1.67,1.82-2.53,2.72-.41.43-.82.88-1.23,1.32l-.45.47c-.13.2-.27.39-.39.59a299.9,299.9,0,0,1-17.43,25.75C196.8,164.9,196.7,164.85,196.74,164.79Z" style="fill:#263238"></path><path d="M227.43,104.8c.06,1.18,7.06,9.84,12.28,10.52,1.7.23.41-9.34.41-9.34l.28-.66,3.84-9.15L234.33,87l-1.45-1.24s-.89,2.57-2,5.79c0,.15-.1.3-.16.46s-.13.35-.18.52c-.16.48-.33,1-.49,1.46s-.24.74-.35,1.13-.24.78-.36,1.18A64.45,64.45,0,0,0,227.43,104.8Z" style="fill:#d3766a"></path><path d="M230.92,91.51a19.9,19.9,0,0,0,9.48,13.81l3.84-9.15L234.33,87l-1.45-1.24S232,88.29,230.92,91.51Z" style="fill:#263238"></path><path d="M259.18,81.32c.36,17.43-10,19.61-13.8,19.68-3.41.07-15-.14-17.19-17.44S234,60.59,241.82,60,258.83,63.89,259.18,81.32Z" style="fill:#d3766a"></path><path d="M228.53,82.35c4.15.31,4.55-6.22,4.55-6.22s4.73-.12,5.57-7.68a11.54,11.54,0,0,0,8.27,6.08C248.26,74.82,244,71,244,71s5.09,5.26,15.27,4.06c.72-.08-.09-10.79-7.74-14.93s-14.9-2.55-20.11,2.1a9.6,9.6,0,0,0-5.56,7.13C224.82,74.81,226.92,82.23,228.53,82.35Z" style="fill:#263238"></path><path d="M231.15,83.65s-3.44-5.68-6-4.49-.22,9.25,2.6,10.52a2.94,2.94,0,0,0,4-1.32Z" style="fill:#d3766a"></path><path d="M225.88,81.45a0,0,0,0,0,0,.08c2,1,2.92,2.91,3.54,4.91a1.63,1.63,0,0,0-2.4-.61.06.06,0,0,0,0,.11,1.82,1.82,0,0,1,2,.77,8.46,8.46,0,0,1,.85,1.67c.08.19.42.11.36-.1a.43.43,0,0,1,0,0C230.41,85.65,228.64,81.9,225.88,81.45Z" style="fill:#263238"></path><path d="M255.82,78.21c-.4-.07-.77-.2-1.16-.3a1.88,1.88,0,0,1-1.13-.54.62.62,0,0,1,0-.75,1.51,1.51,0,0,1,1.53-.29,2.21,2.21,0,0,1,1.38.86A.66.66,0,0,1,255.82,78.21Z" style="fill:#263238"></path><path d="M244.59,77.61c.41,0,.78-.13,1.19-.2A2,2,0,0,0,247,77a.62.62,0,0,0,0-.75,1.51,1.51,0,0,0-1.5-.43,2.28,2.28,0,0,0-1.46.73A.67.67,0,0,0,244.59,77.61Z" style="fill:#263238"></path><path d="M246.88,82.12c0-.05-.1,0-.1.1,0,1.19-.17,2.55-1.25,2.92,0,0,0,.07,0,.07C246.85,85.05,247.08,83.24,246.88,82.12Z" style="fill:#263238"></path><path d="M245.85,80.86c-1.91-.19-2.15,3.63-.38,3.81S247.44,81,245.85,80.86Z" style="fill:#263238"></path><path d="M245.08,81c-.34.2-.7.56-1.1.58s-.8-.41-1.08-.81c0,0-.06,0-.07,0-.05.73.18,1.5,1,1.66s1.27-.48,1.5-1.2C245.33,81.14,245.22,80.93,245.08,81Z" style="fill:#263238"></path><path d="M253.33,82.45s.09.06.08.11c-.12,1.18-.06,2.55,1,3,0,0,0,.07,0,.07C253.09,85.37,253,83.55,253.33,82.45Z" style="fill:#263238"></path><path d="M254.47,81.28c1.92,0,1.8,3.82,0,3.83S252.86,81.29,254.47,81.28Z" style="fill:#263238"></path><path d="M255.26,81.56c.3.21.59.59.95.62s.74-.36,1-.75c0,0,.06,0,.06,0,0,.74-.27,1.49-1,1.61s-1.1-.53-1.25-1.27C255,81.68,255.14,81.47,255.26,81.56Z" style="fill:#263238"></path><path d="M246.34,91.69c.25.3.49.71.91.8a3.2,3.2,0,0,0,1.3-.17s.08,0,0,.07a1.59,1.59,0,0,1-1.57.48,1.25,1.25,0,0,1-.81-1.14C246.2,91.66,246.3,91.64,246.34,91.69Z" style="fill:#263238"></path><path d="M251.51,87.65s.15,1.78.11,2.62c0,.07-.21.1-.49.1h0a4,4,0,0,1-3.79-1.67.09.09,0,0,1,.13-.11A6,6,0,0,0,251,89.81c.07-.23-.37-3-.24-3a7.41,7.41,0,0,1,1.88.52c-.22-3.72-1-7.38-1.2-11.09,0-.13.19-.16.22,0A60.29,60.29,0,0,1,253.48,88C253.52,88.52,251.83,87.81,251.51,87.65Z" style="fill:#263238"></path><path d="M250.59,89.9a4.25,4.25,0,0,1-1.72,1.31,1.94,1.94,0,0,1-1.17.07c-.85-.23-.86-1-.7-1.67a4.8,4.8,0,0,1,.38-1A5.56,5.56,0,0,0,250.59,89.9Z" style="fill:#263238"></path><path d="M248.87,91.21a1.94,1.94,0,0,1-1.17.07c-.85-.23-.86-1-.7-1.67A2,2,0,0,1,248.87,91.21Z" style="fill:#ff9cbd"></path><path d="M240.13,106l-3.71,7.43-8.75-10.5-3,2.9s8.07,16.21,8.19,15.51l3.71-6.36,4.19,5,.57-11.6Z" style="fill:#fff"></path><path d="M241.41,114.2c0-1.91.11-3.84.05-5.76,0-.07-.1-.11-.12,0-.54,1.81-.61,9.15-.76,10.89l0,0c-.18-.21-3.91-4.4-3.95-4.34-.78,1-3.49,5.63-3.69,6-1.27-2.57-6.21-11.95-7.77-14.41a.07.07,0,0,0-.12.06c1.1,2.69,7.61,15.31,7.73,15.29a76.74,76.74,0,0,0,3.88-6.73c.61.89,4.34,5.58,4.38,5.29A60,60,0,0,0,241.41,114.2Z" style="fill:#263238"></path><path d="M232.63,115.17a2.07,2.07,0,0,1-.39,1l0-.21a1.74,1.74,0,0,0-.05-.22,4.09,4.09,0,0,0-.68-1.41l-.11-.15,0,0h0l-.05-.07c-2.89-4.25-6.38,2-6.45,2.2h0s.29-6.52,3.77-6.45C231.33,109.87,232.94,113.17,232.63,115.17Z" style="fill:#455a64"></path><path d="M232.24,116.15a1.38,1.38,0,0,1-.31.28c-1.75,1.15-6.77-.09-7.08-.17h0c4.74.8,6.18-.84,6.5-2.13l0,0,.11.15a4.09,4.09,0,0,1,.68,1.41,1.74,1.74,0,0,1,.05.22Z" style="fill:#37474f"></path><path d="M217.1,114.79a2,2,0,0,0,.35,1,1.91,1.91,0,0,1,0-.21,2.25,2.25,0,0,1,0-.22,4.06,4.06,0,0,1,.76-1.37,1.34,1.34,0,0,1,.11-.14l0,0h0l.06-.06c3.08-4.11,6.27,2.36,6.33,2.51h0s0-6.52-3.46-6.62C218.65,109.56,216.89,112.78,217.1,114.79Z" style="fill:#455a64"></path><path d="M217.45,115.79a1.18,1.18,0,0,0,.29.3c1.69,1.23,6.76.23,7.08.17h0c-4.78.57-6.14-1.14-6.4-2.44l0,0a1.34,1.34,0,0,0-.11.14,4.06,4.06,0,0,0-.76,1.37,2.25,2.25,0,0,0,0,.22A1.91,1.91,0,0,0,217.45,115.79Z" style="fill:#37474f"></path><polygon points="227.14 145.44 215.58 144.61 216.63 115.92 230.25 117.43 227.14 145.44" style="fill:#D36AF8"></polygon><polygon points="227.14 145.44 215.58 144.61 216.63 115.92 230.25 117.43 227.14 145.44" style="opacity:0.1"></polygon><polygon points="232.76 145.84 227.14 145.44 229.52 117.38 235.79 118.57 232.76 145.84" style="fill:#D36AF8"></polygon><g style="opacity:0.2"><polygon points="232.76 145.84 227.14 145.44 229.52 117.38 235.79 118.57 232.76 145.84"></polygon></g><polygon points="215.24 115.79 215.39 122.01 229.12 123 229.65 115.56 215.24 115.79" style="fill:#D36AF8"></polygon><polygon points="215.24 115.79 215.39 122.01 229.12 123 229.65 115.56 215.24 115.79" style="opacity:0.2"></polygon><polygon points="236.24 123.52 229.12 123 229.65 115.56 237.66 117.45 236.24 123.52" style="fill:#D36AF8"></polygon><polygon points="236.24 123.52 229.12 123 229.65 115.56 237.66 117.45 236.24 123.52" style="opacity:0.30000000000000004"></polygon><polygon points="234.73 116.77 230.75 145.7 229.58 145.61 232.9 116.3 234.73 116.77" style="fill:#37474f"></polygon><polygon points="224.93 115.71 222.81 145.13 220.12 144.93 221.57 115.77 224.93 115.71" style="fill:#455a64"></polygon><path d="M263,100.28c.45-1.19,0-2.88-2.86-3.9-4.38-1.56-7.92,2.83-8.35,3.39.46-.64,4.79-6.46,9.21-4.91C264.46,96.08,264.06,98.82,263,100.28Z" style="fill:#D36AF8"></path><path d="M263,100.28a2.36,2.36,0,0,1-1.25.94c-1.6.38-5.19.42-9.7-1.28l-.3-.11,0-.06,0,0h0c4.8,1,8.22.77,9.64.37a1.82,1.82,0,0,0,1.15-1.55,2.53,2.53,0,0,0,0-.55A2.31,2.31,0,0,1,263,100.28Z" style="fill:#D36AF8"></path><path d="M263,100.28a2.36,2.36,0,0,1-1.25.94c-1.6.38-5.19.42-9.7-1.28l-.3-.11,0-.06,0,0h0c4.8,1,8.22.77,9.64.37a1.82,1.82,0,0,0,1.15-1.55,2.53,2.53,0,0,0,0-.55A2.31,2.31,0,0,1,263,100.28Z" style="opacity:0.2"></path><path d="M260.52,93.71c-.5-1.46-2-2.9-5-2.24-4.45,1-4.07,7.47-4,8.27-.1-.91-.89-9.26,3.6-10.3C258.69,88.63,260.33,91.6,260.52,93.71Z" style="fill:#D36AF8"></path><path d="M260.52,93.71a2.61,2.61,0,0,1-.3,1.67c-1,1.31-3.69,3.44-8.35,4.38l-.31.06v-.08a.43.43,0,0,1,0,0h0c4.43-1.75,6.86-4,7.66-5.25A2.36,2.36,0,0,0,259,92.2a3.87,3.87,0,0,0-.37-.56A3.49,3.49,0,0,1,260.52,93.71Z" style="fill:#D36AF8"></path><path d="M260.52,93.71a2.61,2.61,0,0,1-.3,1.67c-1,1.31-3.69,3.44-8.35,4.38l-.31.06v-.08a.43.43,0,0,1,0,0h0c4.43-1.75,6.86-4,7.66-5.25A2.36,2.36,0,0,0,259,92.2a3.87,3.87,0,0,0-.37-.56A3.49,3.49,0,0,1,260.52,93.71Z" style="opacity:0.2"></path><path d="M240.16,98.64c-.27-1.24.4-2.86,3.4-3.46,4.55-.9,7.43,3.95,7.77,4.56-.37-.7-3.82-7.08-8.42-6.18C239.28,94.27,239.28,97,240.16,98.64Z" style="fill:#D36AF8"></path><path d="M240.16,98.64a2.35,2.35,0,0,0,1.1,1.11c1.54.6,5.08,1.15,9.79.12l.31-.07,0-.06s0,0,0,0h0c-4.9.35-8.24-.41-9.59-1a1.86,1.86,0,0,1-.92-1.71,2,2,0,0,1,.07-.54A2.33,2.33,0,0,0,240.16,98.64Z" style="fill:#D36AF8"></path><path d="M240.16,98.64a2.35,2.35,0,0,0,1.1,1.11c1.54.6,5.08,1.15,9.79.12l.31-.07,0-.06s0,0,0,0h0c-4.9.35-8.24-.41-9.59-1a1.86,1.86,0,0,1-.92-1.71,2,2,0,0,1,.07-.54A2.33,2.33,0,0,0,240.16,98.64Z" style="opacity:0.2"></path><path d="M243.23,92.46c.7-1.37,2.42-2.57,5.23-1.5,4.27,1.63,3,8,2.78,8.76.23-.89,2.2-9-2.09-10.71C245.76,87.69,243.72,90.4,243.23,92.46Z" style="fill:#D36AF8"></path><path d="M243.23,92.46a2.56,2.56,0,0,0,.05,1.7c.77,1.43,3.15,3.93,7.64,5.53l.3.11,0-.08a.09.09,0,0,1,0,0l0,0c-4.14-2.36-6.22-5-6.84-6.29a2.37,2.37,0,0,1,.54-2.18,3.44,3.44,0,0,1,.45-.49A3.45,3.45,0,0,0,243.23,92.46Z" style="fill:#D36AF8"></path><path d="M243.23,92.46a2.56,2.56,0,0,0,.05,1.7c.77,1.43,3.15,3.93,7.64,5.53l.3.11,0-.08a.09.09,0,0,1,0,0l0,0c-4.14-2.36-6.22-5-6.84-6.29a2.37,2.37,0,0,1,.54-2.18,3.44,3.44,0,0,1,.45-.49A3.45,3.45,0,0,0,243.23,92.46Z" style="opacity:0.2"></path><polygon points="260.92 122.25 237.28 120.55 237.78 100.09 263.37 102.8 260.92 122.25" style="fill:#37474f"></polygon><polygon points="269.21 122.85 260.92 122.25 262.67 102.75 271.56 104.39 269.21 122.85" style="fill:#455a64"></polygon><polygon points="235.89 99.52 235.87 107.81 262.17 109.71 262.88 99.77 235.89 99.52" style="fill:#263238"></polygon><polygon points="271.62 110.14 262.17 109.71 262.88 99.77 273.04 102.63 271.62 110.14" style="fill:#37474f"></polygon><polygon points="269.56 101.65 266.31 122.56 264.23 122.41 266.94 100.91 269.56 101.65" style="fill:#D36AF8"></polygon><polygon points="269.56 101.65 266.31 122.56 264.23 122.41 266.94 100.91 269.56 101.65" style="opacity:0.1"></polygon><polygon points="252.53 99.69 250.96 121.54 245.49 121.14 246.41 99.64 252.53 99.69" style="fill:#D36AF8"></polygon><polygon points="260.21 147.65 226.07 145.19 229.06 121.1 258.62 122.17 260.21 147.65" style="fill:#D36AF8"></polygon><polygon points="260.21 147.65 226.07 145.19 229.06 121.1 258.62 122.17 260.21 147.65" style="fill:#fff;opacity:0.6000000000000001"></polygon><polygon points="267.19 148.15 257.49 147.45 257.82 122.12 267.69 124.7 267.19 148.15" style="fill:#D36AF8"></polygon><polygon points="227.41 120.02 226.81 128.45 257.28 129.6 257.98 119.95 227.41 120.02" style="fill:#D36AF8"></polygon><polygon points="227.41 120.02 226.81 128.45 257.28 129.6 257.98 119.95 227.41 120.02" style="fill:#fff;opacity:0.4"></polygon><polygon points="268.64 131.47 257.28 129.6 257.98 119.95 269.9 123.08 268.64 131.47" style="fill:#D36AF8"></polygon><polygon points="268.64 131.47 257.28 129.6 257.98 119.95 269.9 123.08 268.64 131.47" style="opacity:0.1"></polygon><polygon points="237.26 119.99 235.7 145.88 243.76 146.46 245.8 119.97 237.26 119.99" style="fill:#455a64"></polygon><polygon points="262.73 121.19 265.72 121.98 263.85 147.91 261.32 147.73 262.73 121.19" style="fill:#455a64"></polygon><polygon points="218.38 196.46 263.83 199.74 263.77 148.2 226.5 147.11 218.38 196.46" style="fill:#455a64"></polygon><polygon points="207.89 195.71 222 196.72 227.55 147.19 213.9 147.39 207.89 195.71" style="fill:#263238"></polygon><polygon points="268.14 148.51 267.42 158.52 227.04 154.37 227.86 142.91 268.14 148.51" style="fill:#37474f"></polygon><polygon points="211.73 154.51 227.04 154.37 227.86 142.91 211.58 144.44 211.73 154.51" style="fill:#455a64"></polygon><polygon points="237.77 197.86 247.28 198.54 252 146.27 240.83 144.72 237.77 197.86" style="fill:#D36AF8"></polygon><polygon points="216.17 196.3 212.94 196.07 216.98 143.93 221.56 143.5 216.17 196.3" style="fill:#D36AF8"></polygon><path d="M177.12,149.45c-8.54-2.17-9.73,9.76-7.5,15.5,5.28,13.6,14.1,26.94,28.64,35.54,3.62,2.14,9.45-26.52,6.44-29.86C202,167.61,191.09,153,177.12,149.45Z" style="fill:#d3766a"></path><path d="M216.83,181.89c-1.14-1.49-.36-2.1,2.87-1.27s15.31,6.87,17.06,2.47-15.42-12.65-20.9-13.63-14.7-.62-14.7-.62C204.18,171.12,211,177.34,216.83,181.89Z" style="fill:#d3766a"></path><path d="M186.3,191.24c9,8.74,19.86,15.77,31.85,16.71a6,6,0,0,0,3.79-.89c5.37.52,7.23-1.86,7.23-1.86,5.14-1,6.7-3.75,6.7-3.75s6.31.54,7.27-3.22c1.08-4.21-8-4.14-13-7.15-11.48-6.9-25.87-19.92-29-22.24Z" style="fill:#d3766a"></path><path d="M213,192.3a87.26,87.26,0,0,0,10.39,5.48,87.3,87.3,0,0,0,12.37,3.55.1.1,0,0,1,0,.2,45.52,45.52,0,0,1-22.82-9.07C212.79,192.34,212.86,192.21,213,192.3Z" style="fill:#263238"></path><path d="M207.86,198.63c3.43,1.72,9.48,4.72,21.33,6.44,0,0,0,.07,0,.07a40.86,40.86,0,0,1-21.41-6.35C207.57,198.67,207.63,198.51,207.86,198.63Z" style="fill:#263238"></path><path d="M205.14,202.08c6,2.71,10,3.67,16.78,4.95,0,0,0,.07,0,.07-7.82-.65-10.57-1.77-16.9-4.83C204.8,202.17,204.91,202,205.14,202.08Z" style="fill:#263238"></path><path d="M203.14,168.8q3.21-.11,6.41,0a40.67,40.67,0,0,1,6.34.77,37.65,37.65,0,0,1,6,2.1q2.94,1.28,5.74,2.81a47.08,47.08,0,0,1,5.39,3.41,12.91,12.91,0,0,1,2.31,2.11,6.55,6.55,0,0,1,.85,1.27,2.79,2.79,0,0,1,.31,1.39c-.08.93-1.07,1.47-2.06,1.58a9.77,9.77,0,0,1-3.09-.16,41.33,41.33,0,0,1-6.1-1.8l-3-1.14a25.91,25.91,0,0,0-3.08-1,5.45,5.45,0,0,0-.84-.14c-.27,0-.54,0-.82,0a4.43,4.43,0,0,0-.87.07l-.25.08a1.19,1.19,0,0,0-.27.17l-.12.16a1.39,1.39,0,0,0-.06.19.78.78,0,0,0,0,.35,2.44,2.44,0,0,0,.54.77,8,8,0,0,0,.62.56c.42.35.85.67,1.28,1,3.43,2.57,6.85,5.14,10.5,7.42a14.94,14.94,0,0,0,2.9,1.48c1,.36,2,.69,3,1,2,.65,4.12,1.23,6.07,2a3.2,3.2,0,0,1,2,2.05,2.94,2.94,0,0,1-1.12,2.64,6.37,6.37,0,0,1-2.83,1.22,12.83,12.83,0,0,1-3.15.22h-.08l0,.06a7.6,7.6,0,0,1-1.33,1.39,9.76,9.76,0,0,1-1.6,1.08,11.3,11.3,0,0,1-1.78.78,13.25,13.25,0,0,1-1.88.47h0a6.22,6.22,0,0,1-2.87,1.67,6.35,6.35,0,0,0,2.93-1.62h0a13.91,13.91,0,0,0,1.91-.44,11,11,0,0,0,1.82-.74,10.43,10.43,0,0,0,1.66-1.07,7.79,7.79,0,0,0,1.4-1.41l-.12.06a13,13,0,0,0,3.24-.15,6.67,6.67,0,0,0,3-1.26,3.33,3.33,0,0,0,1.29-3,2.75,2.75,0,0,0-.86-1.47,5.26,5.26,0,0,0-1.4-.91c-2-.81-4.06-1.4-6.09-2.08-1-.33-2-.67-3-1a14.76,14.76,0,0,1-2.79-1.44c-3.6-2.27-7-4.86-10.42-7.43-.43-.32-.86-.64-1.25-1a3.66,3.66,0,0,1-1-1.05c0-.06,0,0,0,0l.06,0,.14,0a4.14,4.14,0,0,1,.72,0c.26,0,.52,0,.78,0a4.78,4.78,0,0,1,.74.13,27,27,0,0,1,3,1l3,1.13a41.55,41.55,0,0,0,6.2,1.81,10.35,10.35,0,0,0,3.29.15,3.73,3.73,0,0,0,1.62-.58,2.11,2.11,0,0,0,.94-1.53,4.52,4.52,0,0,0-1.3-3.09,13.49,13.49,0,0,0-2.42-2.18,45.08,45.08,0,0,0-5.5-3.38q-2.84-1.51-5.81-2.76a35.86,35.86,0,0,0-6.11-2,40.33,40.33,0,0,0-6.39-.63Q206.35,168.62,203.14,168.8Z" style="fill:#263238"></path><path d="M286.25,147.77c6.89-3.55,10.27,6.44,9.49,11.8-1.85,12.7-6.77,25.88-17.53,36.12-2.68,2.54-13.34-20.87-11.42-24.33C268.52,168.24,275,153.58,286.25,147.77Z" style="fill:#d3766a"></path><path d="M258.61,183.41c.69-1.5-.1-1.87-2.7-.52s-11.77,8.9-14.13,5.48,10.71-13.89,15.22-15.8,12.48-3.44,12.48-3.44C267.34,171.68,262.74,178.35,258.61,183.41Z" style="fill:#d3766a"></path><path d="M286.63,185.4c-6,9.25-13.91,17.43-24,20.6a5.19,5.19,0,0,1-3.43,0c-4.49,1.5-6.55-.17-6.55-.17-4.62.12-6.49-1.88-6.49-1.88s-5.3,1.7-6.86-1.33c-1.77-3.4,6-5.13,9.72-8.7,8.48-8.18,18.24-22.18,20.46-24.78Z" style="fill:#d3766a"></path><path d="M263.93,191.58a76.29,76.29,0,0,1-7.83,6.75,75.74,75.74,0,0,1-9.9,5.48.09.09,0,0,0,.07.17A40.06,40.06,0,0,0,264,191.7C264.15,191.57,264.06,191.47,263.93,191.58Z" style="fill:#263238"></path><path d="M269.61,196c-2.6,2.16-7.2,5.92-17,9.74,0,0,0,.07,0,.06a36,36,0,0,0,17.1-9.67C269.87,196,269.79,195.84,269.61,196Z" style="fill:#263238"></path><path d="M272.62,198.41c-4.56,3.49-7.88,5.12-13.4,7.55,0,0,0,.07,0,.06,6.56-2.1,8.71-3.6,13.53-7.47C272.93,198.41,272.8,198.27,272.62,198.41Z" style="fill:#263238"></path></g></svg>